# xmcd
#
# Track frame offsets: 
#        150
#        17442
#        33427
#        56730
#
# Disc length: 932 seconds
#
# Revision: 0
# Processed by: cddbd v1.5.2PL0 Copyright (c) Steve Scherf et al.
# Submitted via: ExactAudioCopy v0.95b4
#
DISCID=2803a204
DTITLE=Xylonite Ivy - EP
DYEAR=2004
DGENRE=Gothic Rock
TTITLE0=Mirror
TTITLE1=Why?!
TTITLE2=Just Sleeping
TTITLE3=Stolen Life
EXTD=
EXTT0=
EXTT1=
EXTT2=
EXTT3=
PLAYORDER=
